<svg xmlns="http://www.w3.org/2000/svg" width="500" height="500" style="width:100%;height:100%"><defs><clipPath id="a"><path d="M0 0h500v500H0z"/></clipPath></defs><g clip-path="url(#a)"><path stroke-linecap="round" stroke-linejoin="round" stroke="#E82F8B" stroke-width="12.04" d="M174.064 206.511c7.187-7.187 42.091 16.063 77.96 51.932 35.869 35.869 59.119 70.773 51.932 77.96" fill="none" display="block"/><path stroke-linecap="round" stroke-linejoin="round" stroke="#2FC8E8" stroke-width="12.04" d="M215.186 268.198c24.764-49.48-7.103-172.485-97.194-147.65-.424.117-.847.231-1.269.344M241.027 300.764a260.31 260.31 0 015.102-3.841c31.161-22.833 110.305-21.926 119.673 41.029M288.408 106.137c-.6 13.654-24.067 14.845-23.545 29.11.534 14.608 25.149 13.708 25.683 28.316.534 14.608-24.082 15.507-23.548 30.115 0 0 0 0 0 0 .018.488.063.957.133 1.41M370.238 186.499c-9.917 9.405-27.625-6.04-37.158 4.584-9.764 10.879 8.568 27.33-1.196 38.21-9.763 10.879-28.095-5.574-37.858 5.305 0 0 0 0 0 0-.326.363-.62.732-.884 1.106" fill="none" display="block"/><path stroke-linecap="round" stroke-linejoin="round" stroke="#E82F8B" stroke-width="12.04" d="M303.956 336.403c-7.187 7.187-42.09-16.064-77.959-51.933s-59.12-70.772-51.933-77.959l-1.289 3.43-71.96 190.685c-2.128 5.639 3.387 11.154 9.026 9.026l190.685-71.96 3.43-1.289zM221.186 107.818l7.278-12.238M363.987 391.295l-15.296 9.282" fill="none" display="block"/><path stroke-linecap="round" stroke-linejoin="round" stroke="#2FC8E8" stroke-width="12.04" d="M408.842 330.592l7.278-12.238M99.882 268.957l10.068-10.068" fill="none" display="block"/><path stroke-linecap="round" stroke-linejoin="round" stroke="#E82F8B" stroke-width="12.04" d="M381.114 121.334l-10.068-10.068" fill="none" display="block"/><path stroke-linecap="round" stroke-linejoin="round" stroke="#2FC8E8" stroke-width="12.04" d="M256.925 400.61l-5.138-13.278" fill="none" display="block"/><path stroke-linecap="round" stroke-linejoin="round" stroke="#E82F8B" stroke-width="12.04" d="M127.693 173.027l10.792 9.286M392.746 250.038l-3.858-13.704" fill="none" display="block"/></g></svg>